<?xml version="1.0" encoding="utf-8"?>
<!-- Generator: Adobe Illustrator 20.1.0, SVG Export Plug-In . SVG Version: 6.00 Build 0)  -->
<svg version="1.1" id="Layer_1" xmlns="http://www.w3.org/2000/svg" xmlns:xlink="http://www.w3.org/1999/xlink" x="0px" y="0px"
	 viewBox="0 0 400 400" style="enable-background:new 0 0 400 400;" xml:space="preserve">
<style type="text/css">
	.st0{fill:#FFFFFF;stroke:#000000;stroke-miterlimit:10;}
	.st1{fill:#DE1923;}
	.st2{fill:#FF5031;}
	.st3{fill:#F46A21;}
</style>
<path class="st0" d="M281,248.3"/>
<g>
	<circle class="st1" cx="201.3" cy="267.9" r="8.2"/>
</g>
<g>
	<g>
		<ellipse class="st2" cx="106" cy="211.3" rx="5.1" ry="4.7"/>
	</g>
	<g>
		<ellipse class="st2" cx="111.1" cy="231.5" rx="5.9" ry="5.4"/>
	</g>
	<g>
		<ellipse class="st2" cx="124.6" cy="252.2" rx="7.6" ry="7"/>
	</g>
	<g>
		<ellipse class="st2" cx="143.2" cy="268.1" rx="6.1" ry="5.6"/>
	</g>
	<g>
		<g>
			<g>
				<path class="st1" d="M202,241.5h-1.4c-6.4,0-11.6-5.2-11.6-11.6v-9.6c0-6.4,5.2-11.6,11.6-11.6h1.4c6.4,0,11.6,5.2,11.6,11.6
					v9.6C213.7,236.3,208.4,241.5,202,241.5z"/>
			</g>
			<g>
				<g>
					<g>
						<path class="st1" d="M223.5,297h-45.2c-2.2-0.5-5.5-1.5-9-3.5c-3.9-2.3-6.4-5-7.8-6.8c1.3-3.8,2.9-9.3,4.1-16
							c1.1-6.5,1.3-11.4,1.6-17.4c0.2-4.5,0.3-10.5,0-17.6c0.1-1,0.4-3.3,2.2-5.3c3.2-3.8,8.4-3.6,9-3.5h45.2c0.4,0,5.6-0.4,9,3.5
							c3.3,3.8,2.2,8.4,2,8.8c-0.1,3.3-0.2,7.8,0,13c0.2,4.5,0.5,9.7,1.7,16.3c0.8,4.4,2.3,10.3,4.9,17.1c-1.5,2-4.2,5.2-8.6,7.9
							C229.1,295.6,225.8,296.5,223.5,297z"/>
					</g>
					<g>
						<ellipse class="st1" cx="200.6" cy="200.9" rx="20" ry="25.9"/>
					</g>
				</g>
				<path class="st1" d="M177,201.4c-0.1-1.8,0.4-5.1,2.8-6c1-0.4,2.4-0.4,3.4,0.3c1.1,0.8,1,2.3,0.9,4.6c-0.1,2-0.2,3.5-1.3,4.9
					c-0.4,0.5-1.4,1.8-2.6,1.7C178.3,206.8,177.1,203.7,177,201.4z"/>
				<path class="st1" d="M224.7,201.1c0.2-1.8-0.1-5-2.5-6.1c-1-0.4-2.4-0.5-3.4,0.1c-1.1,0.8-1.1,2.2-1.1,4.5c0,2,0,3.5,1.1,4.9
					c0.4,0.5,1.4,1.8,2.5,1.8C223.1,206.3,224.5,203.4,224.7,201.1z"/>
			</g>
		</g>
		<g>
			<g>
				<path class="st2" d="M279.5,169.4h-0.4c-6.4,0-11.6-5.2-11.6-11.6v-7.1c0-6.4,5.2-11.6,11.6-11.6h0.4c6.4,0,11.6,5.2,11.6,11.6
					v7.1C291.2,164.2,285.9,169.4,279.5,169.4z"/>
			</g>
			<g>
				<g>
					<g>
						<path class="st2" d="M300.6,220.8h-43.5c-2.1-0.5-5.3-1.4-8.6-3.3c-3.7-2.1-6.1-4.6-7.5-6.3c1.2-3.5,2.8-8.6,3.9-14.8
							c1.1-6,1.3-10.5,1.5-16.1c0.2-4.2,0.3-9.7,0-16.3c0.1-0.9,0.4-3,2.1-4.9c3.1-3.5,8.1-3.3,8.6-3.3h43.5c0.4,0,5.3-0.4,8.6,3.3
							c3.2,3.5,2.1,7.7,2,8.1c-0.1,3.1-0.2,7.2,0,12c0.2,4.1,0.4,9,1.6,15.1c0.8,4.1,2.2,9.5,4.7,15.8c-1.4,1.9-4,4.9-8.3,7.3
							C305.9,219.4,302.8,220.3,300.6,220.8z"/>
					</g>
					<g>
						<ellipse class="st2" cx="278.6" cy="131.9" rx="19.2" ry="23.9"/>
					</g>
				</g>
				<path class="st2" d="M255.9,132.4c-0.1-1.7,0.4-4.7,2.7-5.6c0.9-0.4,2.3-0.4,3.2,0.3c1,0.8,1,2.1,0.8,4.3
					c-0.1,1.8-0.2,3.2-1.3,4.5c-0.4,0.5-1.4,1.6-2.5,1.6C257.2,137.3,256,134.5,255.9,132.4z"/>
				<path class="st2" d="M301.7,132.1c0.2-1.6-0.1-4.7-2.4-5.6c-0.9-0.4-2.3-0.5-3.2,0.1c-1.1,0.7-1.1,2-1.1,4.2
					c0,1.8,0,3.2,1.1,4.5c0.4,0.5,1.3,1.7,2.4,1.6C300.2,136.9,301.5,134.2,301.7,132.1z"/>
			</g>
		</g>
		<g>
			<g>
				<path class="st3" d="M129.5,149.7h-1.2c-6.4,0-11.6-5.2-11.6-11.6v-7c0-6.4,5.2-11.6,11.6-11.6h1.2c6.4,0,11.6,5.2,11.6,11.6v7
					C141.1,144.5,135.9,149.7,129.5,149.7z"/>
			</g>
			<g>
				<g>
					<g>
						<path class="st3" d="M150.9,200.9H106c-2.2-0.5-5.5-1.4-8.9-3.3c-3.8-2.1-6.3-4.6-7.7-6.3c1.3-3.5,2.9-8.5,4-14.7
							c1.1-6,1.3-10.5,1.5-16.1c0.2-4.2,0.3-9.7,0-16.2c0.1-0.9,0.4-3,2.2-4.9c3.2-3.5,8.3-3.3,8.9-3.3h44.9c0.4,0,5.5-0.4,8.9,3.3
							c3.3,3.5,2.2,7.7,2,8.1c-0.1,3-0.2,7.2,0,12c0.2,4.1,0.5,9,1.7,15.1c0.8,4.1,2.2,9.5,4.9,15.7c-1.4,1.9-4.1,4.8-8.6,7.3
							C156.4,199.6,153.2,200.5,150.9,200.9z"/>
					</g>
					<g>
						<ellipse class="st3" cx="128.1" cy="112.3" rx="19.9" ry="23.9"/>
					</g>
				</g>
				<path class="st3" d="M104.7,112.8c-0.1-1.7,0.4-4.7,2.8-5.6c1-0.4,2.4-0.4,3.3,0.3c1.1,0.8,1,2.1,0.9,4.3
					c-0.1,1.8-0.2,3.2-1.3,4.5c-0.4,0.5-1.4,1.6-2.6,1.5C106,117.7,104.8,114.9,104.7,112.8z"/>
				<path class="st3" d="M152,112.5c0.2-1.6-0.1-4.7-2.5-5.6c-1-0.4-2.4-0.5-3.3,0.1c-1.1,0.7-1.1,2-1.1,4.1c0,1.8,0,3.2,1.1,4.5
					c0.4,0.5,1.3,1.7,2.5,1.6C150.5,117.3,151.8,114.6,152,112.5z"/>
			</g>
		</g>
		<g>
			<ellipse class="st1" cx="161.5" cy="100.2" rx="6.1" ry="5.6"/>
		</g>
		<g>
			<ellipse class="st1" cx="189" cy="93.7" rx="7.5" ry="6.9"/>
		</g>
		<g>
			<ellipse class="st1" cx="247" cy="105.7" rx="5.9" ry="5.4"/>
		</g>
		<g>
			<ellipse class="st3" cx="279.3" cy="232.4" rx="6.9" ry="6.3"/>
		</g>
		<g>
			<ellipse class="st3" cx="267.6" cy="253.3" rx="6.4" ry="5.9"/>
		</g>
		<g>
			<ellipse class="st3" cx="250" cy="267.7" rx="4.1" ry="3.8"/>
		</g>
		<g>
			<ellipse class="st1" cx="220.3" cy="94.5" rx="8.4" ry="7.8"/>
		</g>
	</g>
</g>
</svg>
