<?xml version="1.0" encoding="utf-8"?>
<!-- Generator: Adobe Illustrator 20.1.0, SVG Export Plug-In . SVG Version: 6.00 Build 0)  -->
<svg version="1.1" id="Layer_1" xmlns="http://www.w3.org/2000/svg" xmlns:xlink="http://www.w3.org/1999/xlink" x="0px" y="0px"
	 viewBox="0 0 400 400" style="enable-background:new 0 0 400 400;" xml:space="preserve">
<style type="text/css">
	.st0{fill:#70208C;}
	.st1{fill:#FFFFFF;}
	.st2{fill:#C46CD8;}
	.st3{fill:#FFFFFF;stroke:#000000;stroke-miterlimit:10;}
</style>
<g>
	<path class="st0" d="M298.6,266.4H103.4c-12.2,0-22.2-9.9-22.2-22.2V108c0-12.2,9.9-22.2,22.2-22.2h195.3
		c12.2,0,22.2,9.9,22.2,22.2v136.2C320.8,256.4,310.9,266.4,298.6,266.4z"/>
</g>
<g>
	<path class="st1" d="M286.7,237.1H115.3c-7.4,0-13.5-6-13.5-13.5V119.4c0-7.4,6-13.5,13.5-13.5h171.3c7.4,0,13.5,6,13.5,13.5v104.2
		C300.1,231.1,294.1,237.1,286.7,237.1z"/>
</g>
<g>
	<path class="st0" d="M268.3,145H133.1c-5,0-9.1-4.1-9.1-9.1v0c0-5,4.1-9.1,9.1-9.1h135.2c5,0,9.1,4.1,9.1,9.1v0
		C277.4,140.9,273.3,145,268.3,145z"/>
</g>
<g>
	<path class="st0" d="M165.3,218.6h-28.7c-5.6,0-10.2-4.6-10.2-10.2v-46.3c0-5.6,4.6-10.2,10.2-10.2h28.7c5.6,0,10.2,4.6,10.2,10.2
		v46.3C175.5,214,171,218.6,165.3,218.6z"/>
</g>
<g>
	<rect x="195" y="151.9" class="st0" width="77.4" height="8.2"/>
</g>
<g>
	<rect x="195" y="163.4" class="st0" width="77.4" height="8.2"/>
</g>
<g>
	<rect x="195" y="174.9" class="st0" width="77.4" height="8.2"/>
</g>
<g>
	<circle class="st1" cx="201" cy="250.2" r="4.6"/>
</g>
<ellipse transform="matrix(0.7725 -0.6351 0.6351 0.7725 -32.2977 236.6065)" class="st2" cx="314" cy="163.4" rx="60.2" ry="11.3"/>
<path class="st2" d="M273,207.3c3.5-5.5-10.1-1.3-6.9-9.4c0.6-1.5,0.1-1.6,0-1.7c-0.8-2.1-12.6-4.6-18.5,1.9
	c-8.3,9-2.2,15.4-15.8,23.8c-1.4,0.9,3,2,7.3,3.1c3.9,1,12.8,2.6,21-0.1c1.7-0.6,3.1-1.3,4.8-2.4C273,217.5,272,208.9,273,207.3z"/>
<g>
	<rect x="177.3" y="266.4" class="st0" width="47.5" height="34.3"/>
</g>
<path class="st3" d="M257.5,300"/>
<g>
	<rect x="148.7" y="283.5" class="st0" width="104" height="17.1"/>
</g>
</svg>
